<?xml version="1.0" encoding="utf-8"?>
<!-- Generator: Adobe Illustrator 16.0.0, SVG Export Plug-In . SVG Version: 6.00 Build 0)  -->
<!DOCTYPE svg PUBLIC "-//W3C//DTD SVG 1.1//EN" "http://www.w3.org/Graphics/SVG/1.1/DTD/svg11.dtd">
<svg version="1.1" id="Layer_1" xmlns="http://www.w3.org/2000/svg" xmlns:xlink="http://www.w3.org/1999/xlink" x="0px" y="0px"
	 width="128px" height="128px" viewBox="0 0 128 128" enable-background="new 0 0 128 128" xml:space="preserve">
<g>
	<g>
		<path fill="#282D33" d="M1.718,128l16.606-30.875C9.562,86.528,4.752,73.264,4.752,59.612C4.752,26.742,32.013,0,65.521,0
			c33.502,0,60.758,26.742,60.76,59.612c0,32.875-27.256,59.621-60.758,59.621c-12.025,0-23.615-3.451-33.606-9.992L1.718,128z
			 M65.521,4.011c-31.296,0-56.759,24.943-56.759,55.602c0,13.145,4.791,25.911,13.491,35.944l0.906,1.046l-10.789,20.059
			l19.641-12.2l1.08,0.74c9.564,6.556,20.778,10.021,32.432,10.021c31.291,0,56.748-24.946,56.748-55.61
			C122.27,28.954,96.813,4.011,65.521,4.011z"/>
	</g>
	<g>
		<path fill="#282D33" d="M111.164,52.856c-0.193-1.257-0.443-2.522-0.746-3.76l3.898-0.949c0.328,1.351,0.602,2.731,0.811,4.103
			L111.164,52.856z M109.35,45.411c-0.404-1.204-0.869-2.407-1.379-3.577l3.676-1.604c0.557,1.274,1.063,2.587,1.506,3.9
			L109.35,45.411z M106.287,38.386c-0.604-1.113-1.268-2.221-1.971-3.292l3.352-2.204c0.768,1.167,1.488,2.374,2.146,3.587
			L106.287,38.386z M102.072,31.978c-0.789-1.005-1.629-1.987-2.498-2.92l2.938-2.732c0.943,1.014,1.857,2.081,2.715,3.172
			L102.072,31.978z M96.84,26.357c-0.938-0.854-1.93-1.684-2.945-2.466l2.443-3.179c1.105,0.85,2.184,1.751,3.203,2.68L96.84,26.357
			z M90.75,21.676c-1.068-0.689-2.182-1.345-3.313-1.948l1.889-3.539c1.227,0.655,2.439,1.367,3.6,2.117L90.75,21.676z
			 M83.975,18.059c-1.174-0.506-2.381-0.97-3.592-1.378l1.283-3.8c1.313,0.443,2.625,0.946,3.898,1.497L83.975,18.059z
			 M76.693,15.603c-1.232-0.306-2.5-0.566-3.766-0.771l0.645-3.959c1.373,0.223,2.748,0.505,4.09,0.838L76.693,15.603z
			 M69.111,14.369c-1.27-0.102-2.563-0.153-3.846-0.153v-4.011c1.389,0,2.791,0.056,4.166,0.167L69.111,14.369z"/>
	</g>
	<g>
		<g>
			<polygon fill="#282D33" points="73.02,88.404 69.008,88.404 69.008,56.267 46.858,56.267 46.858,52.256 73.02,52.256 			"/>
		</g>
		<g>
			<polygon fill="#282D33" points="81.127,90.41 54.967,90.41 54.967,54.262 58.978,54.262 58.978,86.399 81.127,86.399 			"/>
		</g>
	</g>
	<g>
		<path fill="#282D33" d="M63.991,44.427c-5.598,0-10.151-4.481-10.151-9.989c0-5.508,4.554-9.989,10.151-9.989
			c5.597,0,10.151,4.481,10.151,9.989C74.143,39.946,69.588,44.427,63.991,44.427z M63.991,28.459c-3.386,0-6.141,2.682-6.141,5.979
			c0,3.297,2.754,5.979,6.141,5.979c3.386,0,6.142-2.682,6.142-5.979C70.133,31.142,67.377,28.459,63.991,28.459z"/>
	</g>
</g>
</svg>
